<svg xmlns="http://www.w3.org/2000/svg" viewBox="0 0 32 32" width="32" height="32">
  <!-- Background circle for better visibility -->
  <circle cx="16" cy="16" r="15" fill="#2563eb" stroke="#1e40af" stroke-width="1"/>
  
  <!-- Open book pages -->
  <path d="M8 10 C8 8, 10 8, 12 8 L20 8 C22 8, 24 8, 24 10 L24 22 C24 23, 23 24, 22 24 L20 24 C18 24, 16 23, 16 22 C16 23, 14 24, 12 24 L10 24 C9 24, 8 23, 8 22 Z" fill="white"/>
  
  <!-- Book spine/center -->
  <line x1="16" y1="8" x2="16" y2="24" stroke="#e5e7eb" stroke-width="1"/>
  
  <!-- Left page lines -->
  <line x1="10" y1="12" x2="14" y2="12" stroke="#d1d5db" stroke-width="0.8"/>
  <line x1="10" y1="14" x2="14" y2="14" stroke="#d1d5db" stroke-width="0.8"/>
  <line x1="10" y1="16" x2="14" y2="16" stroke="#d1d5db" stroke-width="0.8"/>
  <line x1="10" y1="18" x2="13" y2="18" stroke="#d1d5db" stroke-width="0.8"/>
  
  <!-- Right page lines -->
  <line x1="18" y1="12" x2="22" y2="12" stroke="#d1d5db" stroke-width="0.8"/>
  <line x1="18" y1="14" x2="22" y2="14" stroke="#d1d5db" stroke-width="0.8"/>
  <line x1="18" y1="16" x2="22" y2="16" stroke="#d1d5db" stroke-width="0.8"/>
  <line x1="18" y1="18" x2="21" y2="18" stroke="#d1d5db" stroke-width="0.8"/>
</svg>
